<svg width="100" height="79" viewBox="0 0 100 79" fill="none" xmlns="http://www.w3.org/2000/svg">
<rect width="63" height="79" fill="black"/>
<rect width="63" height="79" fill="black"/>
<path d="M14.2 29V18.605H21.16V20.57H16.54V22.745H20.65V24.71H16.54V29H14.2ZM29.0555 29C28.9455 28.64 28.8205 28.27 28.6805 27.89C28.5505 27.51 28.4205 27.13 28.2905 26.75H24.2405C24.1105 27.13 23.9755 27.51 23.8355 27.89C23.7055 28.27 23.5855 28.64 23.4755 29H21.0455C21.4355 27.88 21.8055 26.845 22.1555 25.895C22.5055 24.945 22.8455 24.05 23.1755 23.21C23.5155 22.37 23.8455 21.575 24.1655 20.825C24.4955 20.065 24.8355 19.325 25.1855 18.605H27.4205C27.7605 19.325 28.0955 20.065 28.4255 20.825C28.7555 21.575 29.0855 22.37 29.4155 23.21C29.7555 24.05 30.1005 24.945 30.4505 25.895C30.8005 26.845 31.1705 27.88 31.5605 29H29.0555ZM26.2505 20.96C26.2005 21.11 26.1255 21.315 26.0255 21.575C25.9255 21.835 25.8105 22.135 25.6805 22.475C25.5505 22.815 25.4055 23.19 25.2455 23.6C25.0955 24.01 24.9405 24.44 24.7805 24.89H27.7355C27.5755 24.44 27.4205 24.01 27.2705 23.6C27.1205 23.19 26.9755 22.815 26.8355 22.475C26.7055 22.135 26.5905 21.835 26.4905 21.575C26.3905 21.315 26.3105 21.11 26.2505 20.96ZM17.665 46.135C17.095 46.135 16.525 46.115 15.955 46.075C15.395 46.045 14.81 45.965 14.2 45.835V35.755C14.68 35.665 15.205 35.6 15.775 35.56C16.345 35.51 16.875 35.485 17.365 35.485C18.025 35.485 18.63 35.535 19.18 35.635C19.74 35.725 20.22 35.885 20.62 36.115C21.02 36.345 21.33 36.65 21.55 37.03C21.78 37.4 21.895 37.86 21.895 38.41C21.895 39.24 21.495 39.895 20.695 40.375C21.355 40.625 21.805 40.965 22.045 41.395C22.285 41.825 22.405 42.31 22.405 42.85C22.405 43.94 22.005 44.76 21.205 45.31C20.415 45.86 19.235 46.135 17.665 46.135ZM16.48 41.47V44.155C16.65 44.175 16.835 44.19 17.035 44.2C17.235 44.21 17.455 44.215 17.695 44.215C18.395 44.215 18.96 44.115 19.39 43.915C19.82 43.715 20.035 43.345 20.035 42.805C20.035 42.325 19.855 41.985 19.495 41.785C19.135 41.575 18.62 41.47 17.95 41.47H16.48ZM16.48 39.685H17.62C18.34 39.685 18.855 39.595 19.165 39.415C19.475 39.225 19.63 38.925 19.63 38.515C19.63 38.095 19.47 37.8 19.15 37.63C18.83 37.46 18.36 37.375 17.74 37.375C17.54 37.375 17.325 37.38 17.095 37.39C16.865 37.39 16.66 37.4 16.48 37.42V39.685ZM28.3431 46.21C27.6131 46.21 26.9831 46.11 26.4531 45.91C25.9231 45.7 25.4831 45.415 25.1331 45.055C24.7931 44.685 24.5381 44.25 24.3681 43.75C24.2081 43.24 24.1281 42.68 24.1281 42.07V35.605H26.4681V41.875C26.4681 42.295 26.5131 42.655 26.6031 42.955C26.7031 43.245 26.8331 43.485 26.9931 43.675C27.1631 43.855 27.3631 43.985 27.5931 44.065C27.8331 44.145 28.0931 44.185 28.3731 44.185C28.9431 44.185 29.4031 44.01 29.7531 43.66C30.1131 43.31 30.2931 42.715 30.2931 41.875V35.605H32.6331V42.07C32.6331 42.68 32.5481 43.24 32.3781 43.75C32.2081 44.26 31.9481 44.7 31.5981 45.07C31.2481 45.43 30.8031 45.71 30.2631 45.91C29.7231 46.11 29.0831 46.21 28.3431 46.21ZM21.145 60.99V63H14.2V52.605H16.54V60.99H21.145ZM30.0809 63C29.9709 62.64 29.8459 62.27 29.7059 61.89C29.5759 61.51 29.4459 61.13 29.3159 60.75H25.2659C25.1359 61.13 25.0009 61.51 24.8609 61.89C24.7309 62.27 24.6109 62.64 24.5009 63H22.0709C22.4609 61.88 22.8309 60.845 23.1809 59.895C23.5309 58.945 23.8709 58.05 24.2009 57.21C24.5409 56.37 24.8709 55.575 25.1909 54.825C25.5209 54.065 25.8609 53.325 26.2109 52.605H28.4459C28.7859 53.325 29.1209 54.065 29.4509 54.825C29.7809 55.575 30.1109 56.37 30.4409 57.21C30.7809 58.05 31.1259 58.945 31.4759 59.895C31.8259 60.845 32.1959 61.88 32.5859 63H30.0809ZM27.2759 54.96C27.2259 55.11 27.1509 55.315 27.0509 55.575C26.9509 55.835 26.8359 56.135 26.7059 56.475C26.5759 56.815 26.4309 57.19 26.2709 57.6C26.1209 58.01 25.9659 58.44 25.8059 58.89H28.7609C28.6009 58.44 28.4459 58.01 28.2959 57.6C28.1459 57.19 28.0009 56.815 27.8609 56.475C27.7309 56.135 27.6159 55.835 27.5159 55.575C27.4159 55.315 27.3359 55.11 27.2759 54.96Z" fill="white"/>
<rect width="26" height="79" transform="translate(74)" fill="black"/>
</svg>
